<svg width="4133" height="2838" viewBox="0 0 4133 2838" fill="none" xmlns="http://www.w3.org/2000/svg">
<rect width="4133" height="2838" fill="white"/>
<path d="M1933.31 1828.21H1532.2V2041.83H1933.31V1828.21Z" fill="white" stroke="#FCFCFC" stroke-opacity="0.324324" stroke-width="5.16156"/>
<path d="M1800.65 1822.03C1800.65 1838.07 1794.4 1853.48 1783.26 1864.92C1772.11 1876.37 1756.96 1882.95 1741.05 1883.24C1725.15 1883.54 1709.76 1877.52 1698.21 1866.5C1686.66 1855.47 1679.86 1840.31 1679.27 1824.28C1678.69 1808.25 1684.37 1792.62 1695.09 1780.77C1705.81 1768.92 1720.72 1761.79 1736.6 1760.9C1752.48 1760.02 1768.07 1765.46 1780.02 1776.05C1791.97 1786.65 1799.32 1801.54 1800.48 1817.54" fill="white"/>
<path d="M1800.65 1822.03C1800.65 1838.07 1794.4 1853.48 1783.26 1864.92C1772.11 1876.37 1756.96 1882.95 1741.05 1883.24C1725.15 1883.54 1709.76 1877.52 1698.21 1866.5C1686.66 1855.47 1679.86 1840.31 1679.27 1824.28C1678.69 1808.25 1684.37 1792.62 1695.09 1780.77C1705.81 1768.92 1720.72 1761.79 1736.6 1760.9C1752.48 1760.02 1768.07 1765.46 1780.02 1776.05C1791.97 1786.65 1799.32 1801.54 1800.48 1817.54" stroke="white" stroke-opacity="0.324324" stroke-width="5.97434"/>
<path d="M1048.27 1922V1628.9H943.588V1569.22H1223.94V1628.9H1119.5V1922H1048.27ZM1283.62 1744.41L1222.25 1733.34C1229.15 1708.63 1241.02 1690.34 1257.87 1678.47C1274.71 1666.6 1299.74 1660.66 1332.95 1660.66C1363.11 1660.66 1385.57 1664.27 1400.33 1671.49C1415.09 1678.55 1425.43 1687.61 1431.37 1698.68C1437.47 1709.59 1440.51 1729.73 1440.51 1759.09L1439.79 1838.02C1439.79 1860.48 1440.83 1877.08 1442.92 1887.83C1445.17 1898.42 1449.26 1909.81 1455.19 1922H1388.29C1386.53 1917.51 1384.36 1910.85 1381.8 1902.03C1380.67 1898.02 1379.87 1895.37 1379.39 1894.09C1367.84 1905.32 1355.49 1913.74 1342.33 1919.35C1329.18 1924.97 1315.14 1927.78 1300.22 1927.78C1273.91 1927.78 1253.13 1920.64 1237.89 1906.36C1222.81 1892.08 1215.27 1874.03 1215.27 1852.21C1215.27 1837.78 1218.72 1824.94 1225.62 1813.71C1232.52 1802.32 1242.14 1793.66 1254.5 1787.72C1267.01 1781.63 1284.98 1776.33 1308.4 1771.84C1340.01 1765.9 1361.9 1760.37 1374.1 1755.24V1748.5C1374.1 1735.5 1370.89 1726.28 1364.47 1720.82C1358.05 1715.21 1345.94 1712.4 1328.13 1712.4C1316.1 1712.4 1306.72 1714.81 1299.98 1719.62C1293.24 1724.27 1287.79 1732.53 1283.62 1744.41ZM1374.1 1799.27C1365.43 1802.16 1351.72 1805.61 1332.95 1809.62C1314.18 1813.63 1301.9 1817.56 1296.13 1821.41C1287.31 1827.67 1282.89 1835.61 1282.89 1845.24C1282.89 1854.7 1286.42 1862.88 1293.48 1869.78C1300.54 1876.68 1309.52 1880.13 1320.43 1880.13C1332.63 1880.13 1344.26 1876.12 1355.33 1868.1C1363.51 1862 1368.88 1854.54 1371.45 1845.72C1373.21 1839.94 1374.1 1828.95 1374.1 1812.75V1799.27ZM1739.87 1922H1672.25V1791.57C1672.25 1763.98 1670.81 1746.17 1667.92 1738.15C1665.03 1729.97 1660.3 1723.63 1653.72 1719.14C1647.31 1714.65 1639.52 1712.4 1630.38 1712.4C1618.67 1712.4 1608.16 1715.61 1598.86 1722.03C1589.55 1728.44 1583.13 1736.95 1579.61 1747.53C1576.24 1758.12 1574.55 1777.69 1574.55 1806.25V1922H1506.93V1666.44H1569.74V1703.98C1592.04 1675.1 1620.11 1660.66 1653.96 1660.66C1668.88 1660.66 1682.52 1663.39 1694.87 1668.84C1707.23 1674.14 1716.53 1680.96 1722.79 1689.3C1729.2 1697.64 1733.62 1707.11 1736.02 1717.69C1738.59 1728.28 1739.87 1743.44 1739.87 1763.18V1922ZM1808.7 1631.79V1569.22H1876.32V1631.79H1808.7ZM1808.7 1922V1666.44H1876.32V1922H1808.7ZM1940.81 1666.44H2003.14V1701.33C2025.43 1674.22 2051.99 1660.66 2082.79 1660.66C2099.15 1660.66 2113.35 1664.03 2125.38 1670.77C2137.41 1677.51 2147.28 1687.69 2154.98 1701.33C2166.21 1687.69 2178.32 1677.51 2191.32 1670.77C2204.31 1664.03 2218.19 1660.66 2232.95 1660.66C2251.72 1660.66 2267.6 1664.51 2280.6 1672.21C2293.59 1679.75 2303.3 1690.9 2309.71 1705.66C2314.37 1716.57 2316.69 1734.22 2316.69 1758.6V1922H2249.07V1775.93C2249.07 1750.58 2246.75 1734.22 2242.09 1726.84C2235.84 1717.21 2226.21 1712.4 2213.22 1712.4C2203.75 1712.4 2194.85 1715.29 2186.5 1721.06C2178.16 1726.84 2172.15 1735.34 2168.46 1746.57C2164.77 1757.64 2162.92 1775.21 2162.92 1799.27V1922H2095.3V1781.95C2095.3 1757.08 2094.1 1741.04 2091.69 1733.82C2089.28 1726.6 2085.51 1721.22 2080.38 1717.69C2075.41 1714.17 2068.59 1712.4 2059.93 1712.4C2049.5 1712.4 2040.11 1715.21 2031.77 1720.82C2023.43 1726.44 2017.41 1734.54 2013.72 1745.13C2010.19 1755.72 2008.43 1773.28 2008.43 1797.83V1922H1940.81V1666.44Z" fill="#008700"/>
<path d="M2384.79 1922V1569.22H2499.1C2542.41 1569.22 2570.65 1570.98 2583.8 1574.51C2604.02 1579.81 2620.94 1591.36 2634.58 1609.17C2648.22 1626.81 2655.03 1649.67 2655.03 1677.75C2655.03 1699.41 2651.1 1717.61 2643.24 1732.37C2635.38 1747.13 2625.36 1758.76 2613.16 1767.27C2601.13 1775.61 2588.86 1781.14 2576.34 1783.87C2559.34 1787.24 2534.71 1788.92 2502.47 1788.92H2456.02V1922H2384.79ZM2456.02 1628.9V1729.01H2495.01C2523.08 1729.01 2541.85 1727.16 2551.32 1723.47C2560.78 1719.78 2568.16 1714.01 2573.46 1706.14C2578.91 1698.28 2581.64 1689.14 2581.64 1678.71C2581.64 1665.88 2577.87 1655.29 2570.33 1646.95C2562.79 1638.6 2553.24 1633.39 2541.69 1631.3C2533.19 1629.7 2516.1 1628.9 2490.44 1628.9H2456.02ZM2713.75 1922V1569.22H2863.67C2901.37 1569.22 2928.72 1572.43 2945.73 1578.84C2962.9 1585.1 2976.61 1596.33 2986.88 1612.53C2997.15 1628.74 3002.28 1647.27 3002.28 1668.12C3002.28 1694.59 2994.5 1716.49 2978.94 1733.82C2963.38 1750.98 2940.11 1761.81 2909.15 1766.3C2924.55 1775.29 2937.23 1785.15 2947.17 1795.9C2957.28 1806.65 2970.84 1825.74 2987.84 1853.18L3030.92 1922H2945.73L2894.23 1845.24C2875.94 1817.8 2863.43 1800.56 2856.69 1793.5C2849.95 1786.28 2842.82 1781.38 2835.28 1778.82C2827.74 1776.09 2815.78 1774.73 2799.42 1774.73H2784.98V1922H2713.75ZM2784.98 1718.42H2837.68C2871.85 1718.42 2893.19 1716.97 2901.69 1714.09C2910.2 1711.2 2916.85 1706.22 2921.67 1699.17C2926.48 1692.11 2928.88 1683.28 2928.88 1672.69C2928.88 1660.82 2925.68 1651.28 2919.26 1644.06C2913 1636.68 2904.1 1632.03 2892.55 1630.1C2886.77 1629.3 2869.45 1628.9 2840.57 1628.9H2784.98V1718.42ZM3055.22 1747.78C3055.22 1711.84 3060.6 1681.68 3071.35 1657.29C3079.37 1639.33 3090.28 1623.2 3104.07 1608.92C3118.03 1594.65 3133.27 1584.06 3149.79 1577.16C3171.77 1567.86 3197.12 1563.2 3225.84 1563.2C3277.82 1563.2 3319.37 1579.33 3350.49 1611.57C3381.77 1643.82 3397.42 1688.66 3397.42 1746.09C3397.42 1803.04 3381.93 1847.64 3350.97 1879.89C3320.01 1911.97 3278.62 1928.02 3226.8 1928.02C3174.34 1928.02 3132.63 1912.05 3101.67 1880.13C3070.7 1848.04 3055.22 1803.92 3055.22 1747.78ZM3128.62 1745.37C3128.62 1785.32 3137.84 1815.64 3156.29 1836.33C3174.74 1856.87 3198.16 1867.13 3226.56 1867.13C3254.95 1867.13 3278.22 1856.95 3296.35 1836.57C3314.63 1816.04 3323.78 1785.32 3323.78 1744.41C3323.78 1703.98 3314.87 1673.82 3297.07 1653.92C3279.42 1634.03 3255.92 1624.09 3226.56 1624.09C3197.2 1624.09 3173.54 1634.19 3155.57 1654.41C3137.6 1674.46 3128.62 1704.78 3128.62 1745.37Z" fill="#814206"/>
<path d="M2462.25 1628H2379V1728.06H2462.25V1628Z" fill="white"/>
<path d="M2788 1628H2705V1719H2788V1628Z" fill="white"/>
<path d="M2201.24 1869.27H2199.91V1870.47H2201.24V1869.27Z" fill="white" stroke="white" stroke-opacity="0.324324" stroke-width="2.94"/>
<path d="M2641.76 1867.35H2557.97V1958.49H2641.76V1867.35Z" fill="white"/>
<path d="M1934.89 424C1936.61 431.711 1938.05 439.471 1939.2 447.268C1941.34 461.756 1942.49 476.35 1942.65 490.966C1962.07 498.968 1980.9 508.233 1999.03 518.708C2002.58 520.757 2006.1 522.853 2009.59 524.994C2013.06 527.123 2016.5 529.296 2019.91 531.513C2047.37 549.357 2072.86 570.012 2096.01 593.178C2106.66 603.844 2116.8 615.026 2126.4 626.688C2134.48 636.511 2142.17 646.668 2149.45 657.134C2163.05 676.695 2175.19 697.301 2185.77 718.796C2189.07 725.479 2192.21 732.244 2195.19 739.087C2197.42 744.202 2199.57 749.359 2201.62 754.556C2214.8 787.854 2224.34 822.693 2230.09 858.485C2231.49 867.256 2232.67 876.078 2233.62 884.94C2235.03 898.125 2235.93 911.392 2236.32 924.71C2237.35 960.046 2234.76 995.613 2228.59 1030.85H2289.31H2306.12C2309.36 1001.02 2310.51 971.11 2309.54 941.368C2308.92 922.441 2307.44 903.61 2305.12 884.94C2303.96 875.65 2302.6 866.404 2301.02 857.21C2297.92 839.107 2294.01 821.219 2289.31 803.604C2286.87 794.464 2284.22 785.401 2281.35 776.423C2277.32 763.795 2272.88 751.342 2268.03 739.087C2263.07 726.546 2257.68 714.22 2251.88 702.131C2240.75 678.934 2228.12 656.651 2214.07 635.43C2204.39 620.807 2194.05 606.708 2183.09 593.178C2179.34 588.553 2175.52 583.995 2171.63 579.507C2164.47 571.254 2157.07 563.237 2149.45 555.468C2128.43 534.049 2105.73 514.557 2081.55 497.178C2075.86 493.087 2070.09 489.115 2064.25 485.264C2046.66 473.68 2028.41 463.205 2009.59 453.889C2004.99 451.612 2000.35 449.405 1995.68 447.268H1991.39C1991.24 446.555 1991.09 445.842 1990.94 445.129C1972.69 436.997 1953.98 429.944 1934.89 424Z" fill="#09B809"/>
<path d="M2066.96 566.5C2007.36 519.072 1955.8 494.5 1942.96 491L1942.46 475.5L1941.96 467L1940.96 458L1937.46 438L1935.46 424C1951.46 429.5 1971.96 434 2031.46 464.5C2104.89 502.14 2149.46 553 2201.96 615.2C2251.73 674.157 2283.96 772.5 2297.96 834.5C2309.32 884.772 2312.96 963 2306.96 1031.2H2228.96C2229.76 1031.2 2242.46 949.5 2234.96 893L2228.46 845L2222.46 816.5L2213.96 788L2204.96 763.5C2186.46 710.5 2137.96 623 2066.96 566.5Z" fill="#09B809"/>
<path d="M1922.52 1429.66C1892.06 1448.24 1861.21 1460.49 1836.61 1463.76C1812.02 1467.03 1795.64 1461.06 1791 1447.15C1786.36 1433.23 1793.83 1412.48 1811.8 1389.35C1829.77 1366.22 1856.82 1342.56 1887.11 1323.47C1917.4 1304.37 1948.52 1291.37 1973.78 1287.25C1999.03 1283.13 2016.41 1288.23 2022.16 1301.44C2027.91 1314.66 2021.58 1334.94 2004.53 1357.92C1987.49 1380.89 1961.08 1404.74 1931 1424.31" fill="white"/>
<path d="M1988.98 1393.93C1958.52 1412.51 1927.67 1424.76 1903.08 1428.03C1878.48 1431.3 1862.1 1425.33 1857.46 1411.42C1852.82 1397.5 1860.29 1376.75 1878.26 1353.62C1896.24 1330.49 1923.28 1306.83 1953.57 1287.74C1983.86 1268.64 2014.98 1255.64 2040.24 1251.52C2065.5 1247.4 2082.87 1252.5 2088.62 1265.71C2094.37 1278.93 2088.04 1299.21 2071 1322.18C2053.95 1345.16 2027.55 1369.01 1997.46 1388.58" fill="white"/>
<path d="M1953.18 1415.08C1924.14 1435.99 1894.26 1450.62 1869.97 1455.81C1845.68 1460.99 1828.91 1456.33 1823.29 1442.82C1817.66 1429.3 1823.61 1408.02 1839.87 1383.55C1856.13 1359.08 1881.39 1333.37 1910.22 1311.96C1939.06 1290.55 1969.15 1275.14 1994.04 1269.06C2018.93 1262.97 2036.62 1266.69 2043.31 1279.42C2050 1292.15 2045.14 1312.86 2029.8 1337.11C2014.45 1361.36 1989.84 1387.2 1961.25 1409.08" fill="white"/>
<path d="M1920.07 1437.31C1893.24 1457.42 1865.64 1471.49 1843.2 1476.48C1820.76 1481.47 1805.27 1476.99 1800.07 1463.99C1794.87 1450.99 1800.37 1430.52 1815.39 1406.98C1830.41 1383.44 1853.75 1358.71 1880.39 1338.11C1907.02 1317.52 1934.83 1302.7 1957.82 1296.85C1980.81 1290.99 1997.15 1294.57 2003.33 1306.81C2009.51 1319.06 2005.03 1338.98 1990.85 1362.31C1976.67 1385.63 1953.94 1410.49 1927.53 1431.54" fill="white"/>
<path d="M1953.18 1415.08C1924.14 1435.99 1894.26 1450.62 1869.97 1455.81C1845.68 1460.99 1828.91 1456.33 1823.29 1442.82C1817.66 1429.3 1823.61 1408.02 1839.87 1383.55C1856.13 1359.08 1881.39 1333.37 1910.22 1311.96C1939.06 1290.55 1969.15 1275.14 1994.04 1269.06C2018.93 1262.97 2036.62 1266.69 2043.31 1279.42C2050 1292.15 2045.14 1312.86 2029.8 1337.11C2014.45 1361.36 1989.84 1387.2 1961.25 1409.08" fill="white"/>
<path d="M2012.47 1379.5C1983.43 1400.42 1953.55 1415.04 1929.26 1420.23C1904.97 1425.42 1888.21 1420.75 1882.58 1407.24C1876.95 1393.73 1882.9 1372.45 1899.16 1347.97C1915.42 1323.5 1940.68 1297.79 1969.52 1276.38C1998.35 1254.97 2028.45 1239.56 2053.34 1233.48C2078.22 1227.39 2095.92 1231.12 2102.6 1243.84C2109.29 1256.57 2104.44 1277.29 2089.09 1301.54C2073.75 1325.78 2049.13 1351.63 2020.55 1373.51" fill="white"/>
<path d="M1856.05 1521.59C1850.3 1534.38 1842.45 1545.51 1834.17 1552.59C1825.89 1559.67 1817.85 1562.14 1811.78 1559.46C1805.71 1556.78 1802.09 1549.16 1801.7 1538.25C1801.32 1527.34 1804.2 1514.01 1809.72 1501.13C1815.24 1488.24 1822.96 1476.83 1831.23 1469.35C1839.49 1461.86 1847.64 1458.91 1853.91 1461.12C1860.18 1463.33 1864.08 1470.52 1864.77 1481.16C1865.46 1491.79 1862.88 1505.01 1857.59 1517.98" fill="white"/>
<path d="M1867.91 1500.87C1862.17 1513.66 1854.31 1524.79 1846.03 1531.87C1837.76 1538.96 1829.72 1541.42 1823.65 1538.74C1817.57 1536.06 1813.96 1528.44 1813.57 1517.54C1813.19 1506.63 1816.06 1493.3 1821.58 1480.41C1827.1 1467.52 1834.83 1456.11 1843.09 1448.63C1851.36 1441.15 1859.5 1438.19 1865.78 1440.4C1872.05 1442.61 1875.95 1449.8 1876.64 1460.44C1877.33 1471.07 1874.75 1484.3 1869.46 1497.26" fill="white"/>
<path d="M1879.95 1481.15C1874.2 1493.94 1866.35 1505.07 1858.07 1512.16C1849.79 1519.24 1841.75 1521.7 1835.68 1519.02C1829.61 1516.34 1825.99 1508.73 1825.6 1497.82C1825.22 1486.91 1828.1 1473.58 1833.62 1460.69C1839.14 1447.8 1846.86 1436.39 1855.13 1428.91C1863.39 1421.43 1871.54 1418.47 1877.81 1420.68C1884.08 1422.89 1887.98 1430.09 1888.67 1440.72C1889.36 1451.35 1886.78 1464.58 1881.49 1477.55" fill="white"/>
<path d="M1891.08 1464.83C1885.34 1477.61 1877.48 1488.75 1869.21 1495.83C1860.93 1502.91 1852.89 1505.38 1846.82 1502.69C1840.74 1500.01 1837.13 1492.4 1836.74 1481.49C1836.36 1470.58 1839.23 1457.25 1844.75 1444.36C1850.27 1431.48 1858 1420.06 1866.26 1412.58C1874.53 1405.1 1882.67 1402.15 1888.95 1404.35C1895.22 1406.56 1899.12 1413.76 1899.81 1424.39C1900.5 1435.03 1897.92 1448.25 1892.63 1461.22" fill="white"/>
<path d="M2164.45 1389.88L2155.83 1381.44L2140.36 1398.7L2148.99 1407.14L2164.45 1389.88Z" fill="white"/>
<path d="M2048.67 791.232C2058.5 797.217 2065.77 805.665 2070.19 816.232C2072.38 830.085 2071.92 842.041 2065.82 854.908C2064.45 856.388 2063.08 857.868 2061.67 859.392C2057.9 863.932 2057.9 863.932 2059.43 870.715C2060.85 875.829 2062.5 880.835 2064.18 885.87C2074.63 917.73 2081.48 950.465 2081.96 984.054C2082.03 986.162 2082.1 988.271 2082.17 990.444C2083.39 1052.27 2068.86 1114.44 2042.54 1170.28C2040.44 1174.75 2038.4 1179.23 2036.36 1183.72C2020.45 1218.19 2001.41 1250.67 1979.72 1281.81C1979.02 1282.82 1978.32 1283.83 1977.59 1284.88C1954.54 1317.99 1929.81 1350.46 1902.53 1380.2C1899.31 1383.71 1896.18 1387.28 1893.06 1390.88C1886.53 1398.4 1879.75 1405.68 1872.98 1412.99C1867.57 1418.82 1862.23 1424.71 1856.97 1430.68C1843.46 1445.93 1843.46 1445.93 1837.68 1448.73C1834.17 1450.15 1834.17 1450.15 1832.82 1453.68C1830.64 1458 1828.15 1460.94 1824.79 1464.43C1823.74 1465.55 1822.69 1466.67 1821.61 1467.82C1818.29 1470.14 1818.29 1470.14 1814.66 1469.95C1810.61 1468.12 1808.31 1466.09 1805.29 1462.86C1803.89 1461.38 1803.89 1461.38 1802.46 1459.88C1801.42 1458.74 1801.42 1458.74 1800.35 1457.59C1802.67 1452.48 1805.1 1448.82 1809.09 1444.89C1810.64 1443.34 1810.64 1443.34 1812.23 1441.76C1813.35 1440.67 1814.47 1439.57 1815.62 1438.45C1817.36 1436.72 1817.36 1436.72 1819.13 1434.96C1822.84 1431.28 1826.56 1427.62 1830.29 1423.96C1833.97 1420.32 1837.66 1416.68 1841.34 1413.03C1843.63 1410.76 1845.92 1408.5 1848.22 1406.25C1855.98 1398.57 1863.19 1390.52 1870.31 1382.25C1872.96 1379.26 1875.61 1376.27 1878.27 1373.28C1879.49 1371.92 1880.7 1370.55 1881.96 1369.14C1883.29 1367.64 1883.29 1367.64 1884.66 1366.11C1883.28 1366.09 1881.91 1366.08 1880.5 1366.06C1874.18 1365.96 1867.87 1365.81 1861.56 1365.66C1859.4 1365.64 1857.24 1365.61 1855.02 1365.58C1833.9 1365.01 1819.7 1360.13 1804.31 1345.51C1792.81 1332.39 1789.35 1318.21 1788.47 1301.31C1788.38 1299.85 1788.29 1298.38 1788.19 1296.87C1787.65 1286.83 1788.25 1277.43 1789.59 1267.46C1787.79 1267.52 1786 1267.58 1784.15 1267.65C1768.71 1268.03 1757.86 1268.05 1745.2 1258.26C1733.43 1243.23 1735.07 1225.18 1735.26 1207.14C1735.27 1204.26 1735.27 1201.39 1735.28 1198.52C1735.3 1191.01 1735.35 1183.5 1735.41 1175.99C1735.47 1168.3 1735.49 1160.62 1735.52 1152.94C1735.58 1137.9 1735.67 1122.86 1735.78 1107.82C1734.66 1107.57 1733.54 1107.32 1732.39 1107.07C1727.8 1105.8 1726.07 1104.44 1723.23 1100.64C1721.99 1095.14 1722.21 1090.04 1723.23 1084.5C1726.81 1079.13 1729.42 1076.44 1735.61 1074.41C1744.27 1072.81 1749.84 1074.14 1757.31 1079.12C1761.69 1085.7 1762.4 1091.2 1760.89 1098.85C1756.63 1104.23 1756.63 1104.23 1751.92 1107.82C1750.74 1107.82 1749.56 1107.82 1748.34 1107.82C1748.49 1125.23 1748.66 1142.65 1748.85 1160.07C1748.94 1168.15 1749.03 1176.24 1749.09 1184.33C1749.16 1192.13 1749.24 1199.94 1749.34 1207.74C1749.37 1210.72 1749.4 1213.69 1749.42 1216.67C1749.45 1220.84 1749.5 1225.01 1749.56 1229.18C1749.56 1230.41 1749.57 1231.65 1749.57 1232.91C1749.68 1239.3 1749.99 1244.22 1753.72 1249.52C1765.67 1256.79 1772.32 1254.9 1787.8 1254.9C1787.8 1192.75 1787.8 1130.6 1787.8 1066.56C1785.43 1065.38 1783.06 1064.2 1780.62 1062.98C1776.37 1058.72 1776.42 1057.48 1776.25 1051.65C1776.42 1045.18 1776.91 1043.43 1780.74 1037.86C1787.04 1033.57 1790.94 1032.48 1798.56 1032.48C1804.24 1034.81 1806.98 1037.21 1810.89 1041.9C1813.65 1048.64 1813.11 1052.42 1811.12 1059.39C1809.63 1060.54 1808.14 1061.7 1806.6 1062.89C1799.69 1071.37 1800.84 1079.79 1800.88 1090.42C1800.85 1092.56 1800.83 1094.7 1800.8 1096.9C1800.72 1103.71 1800.71 1110.53 1800.69 1117.35C1800.65 1121.97 1800.6 1126.6 1800.55 1131.22C1800.43 1142.56 1800.4 1153.88 1800.35 1165.22C1822.26 1165.22 1844.16 1165.22 1866.72 1165.22C1866.66 1159.77 1866.6 1154.33 1866.53 1148.72C1866.49 1143.43 1866.46 1138.14 1866.43 1132.85C1866.4 1129.19 1866.36 1125.52 1866.31 1121.85C1866.25 1116.57 1866.22 1111.29 1866.2 1106.01C1866.17 1104.38 1866.14 1102.75 1866.11 1101.07C1866.11 1089.66 1867.82 1081.86 1875.91 1073.29C1881.82 1069.69 1886.67 1068.8 1893.47 1067.97C1899.01 1065.89 1900.04 1062.85 1902.59 1057.59C1903.43 1051.75 1903.43 1051.75 1903.35 1045.33C1903.36 1044.13 1903.38 1042.94 1903.39 1041.7C1903.44 1037.77 1903.44 1033.83 1903.44 1029.9C1903.45 1027.15 1903.46 1024.41 1903.48 1021.66C1903.5 1015.92 1903.5 1010.18 1903.49 1004.43C1903.48 997.077 1903.54 989.722 1903.61 982.366C1903.66 976.701 1903.66 971.037 1903.66 965.373C1903.66 962.66 1903.68 959.948 1903.71 957.235C1903.75 953.443 1903.73 949.656 1903.7 945.864C1903.7 943.708 1903.71 941.552 1903.71 939.331C1902.27 932.235 1899.49 930.618 1893.63 926.656C1890.74 920.885 1890.73 914.958 1891.83 908.719C1897.07 902.236 1901.01 898.417 1909.32 897.284C1917.44 898.221 1920.11 901.261 1925.91 906.925C1928.44 911.983 1928.15 915.66 1927.71 921.275C1924.72 927.542 1922.79 929.932 1916.94 933.83C1916.12 939.264 1916.12 939.264 1916.25 945.757C1916.24 946.983 1916.23 948.208 1916.22 949.471C1916.21 952.136 1916.2 954.801 1916.21 957.466C1916.22 961.689 1916.19 965.911 1916.16 970.134C1916.09 979.108 1916.07 988.083 1916.05 997.058C1916.03 1007.43 1915.99 1017.81 1915.9 1028.18C1915.88 1032.34 1915.89 1036.49 1915.9 1040.64C1915.88 1043.2 1915.86 1045.76 1915.84 1048.33C1915.84 1050.55 1915.83 1052.78 1915.83 1055.08C1914.86 1063.76 1911.93 1069.66 1905.96 1075.98C1900.07 1079.57 1895.17 1080.55 1888.4 1081.47C1883.07 1083.23 1882 1084.92 1879.28 1089.88C1878.42 1095.6 1878.4 1101.29 1878.36 1107.06C1878.31 1109.55 1878.31 1109.55 1878.26 1112.1C1878.16 1117.4 1878.1 1122.7 1878.04 1128C1877.98 1131.59 1877.92 1135.19 1877.86 1138.79C1877.71 1147.6 1877.59 1156.41 1877.48 1165.22C1884.06 1165.07 1890.64 1164.87 1897.21 1164.66C1899.06 1164.62 1900.91 1164.57 1902.81 1164.53C1916.24 1164.06 1927.29 1162.79 1938.02 1154.01C1946.03 1144.22 1951.07 1134.78 1951.59 1121.98C1951.67 1120.22 1951.74 1118.45 1951.82 1116.64C1951.89 1114.8 1951.96 1112.96 1952.03 1111.07C1952.15 1108.28 1952.15 1108.28 1952.27 1105.44C1952.46 1100.85 1952.64 1096.26 1952.82 1091.67C1951.71 1091.16 1950.6 1090.64 1949.46 1090.11C1945.64 1088.09 1945.64 1088.09 1942.06 1084.5C1940.17 1076.19 1939.48 1070.47 1943.85 1062.98C1948.46 1057.84 1951.1 1057.59 1958.09 1056.81C1965.42 1057.07 1969.18 1059.45 1974.34 1064.77C1977.09 1070.27 1976.55 1074.84 1976.14 1080.91C1973.89 1086.07 1973.89 1086.07 1970.76 1089.88C1968.39 1090.47 1966.02 1091.06 1963.58 1091.67C1963.58 1098.19 1963.58 1104.7 1963.58 1111.41C1969.34 1111.3 1975.09 1111.14 1980.84 1110.96C1982.47 1110.93 1984.09 1110.91 1985.76 1110.88C1995.89 1110.51 2002.36 1109.45 2010.22 1102.44C2016.99 1094.07 2016.38 1085.85 2016.31 1075.58C2016.32 1073.86 2016.32 1072.14 2016.33 1070.36C2016.33 1066.73 2016.32 1063.1 2016.3 1059.47C2016.27 1053.91 2016.3 1048.35 2016.33 1042.79C2016.33 1039.26 2016.32 1035.73 2016.31 1032.2C2016.33 1029.7 2016.33 1029.7 2016.34 1027.16C2016.25 1018.7 2016.17 1013.83 2010.22 1007.37C2009.26 998.784 2008.92 995.059 2013.58 987.753C2018.44 983.039 2020 982.354 2026.81 981.699C2034.99 982.381 2038.41 983.687 2044.3 989.435C2046.44 996.319 2047.19 1002.65 2044.63 1009.47C2041.4 1014.45 2037.1 1015.9 2031.74 1018.13C2030.56 1018.13 2029.37 1018.13 2028.15 1018.13C2028.19 1020.39 2028.23 1022.66 2028.27 1024.99C2028.4 1033.42 2028.48 1041.86 2028.55 1050.3C2028.58 1053.94 2028.63 1057.58 2028.69 1061.23C2028.78 1066.48 2028.82 1071.73 2028.85 1076.99C2028.89 1078.6 2028.93 1080.21 2028.97 1081.88C2028.97 1093.67 2026.71 1103.57 2018.38 1112.35C2010.4 1119.28 2004.26 1122.64 1993.71 1122.52C1991.95 1122.51 1990.19 1122.49 1988.38 1122.48C1985.65 1122.44 1985.65 1122.44 1982.86 1122.39C1981.01 1122.38 1979.16 1122.36 1977.26 1122.34C1972.7 1122.3 1968.14 1122.24 1963.58 1122.17C1963.48 1123.38 1963.39 1124.58 1963.29 1125.83C1963.08 1128.22 1963.08 1128.22 1962.87 1130.67C1962.73 1132.24 1962.6 1133.82 1962.46 1135.45C1960.52 1148.79 1952.38 1158.79 1942.06 1167.01C1930.98 1173.84 1921.7 1176.21 1908.69 1176.18C1907.49 1176.18 1906.3 1176.18 1905.07 1176.18C1901.23 1176.18 1897.39 1176.17 1893.54 1176.15C1891.19 1176.15 1888.83 1176.15 1886.41 1176.15C1877.6 1176.14 1868.8 1176.11 1859.99 1176.09C1840.31 1176.05 1820.63 1176.02 1800.35 1175.98C1800.35 1216.23 1800.35 1256.48 1800.35 1297.95C1830.36 1299.02 1830.36 1299.02 1852.82 1287.41C1860.38 1278.23 1860.26 1268.42 1860.67 1257.03C1860.74 1255.45 1860.81 1253.86 1860.88 1252.23C1861.05 1248.34 1861.19 1244.44 1861.34 1240.55C1860.22 1240.02 1859.1 1239.5 1857.95 1238.95C1853.26 1236.49 1851.36 1234.43 1848.78 1229.79C1847.68 1222.53 1848.49 1219.54 1852.15 1213.09C1855.96 1208.26 1855.96 1208.26 1859.55 1206.47C1872.26 1205.43 1872.26 1205.43 1879.16 1209.83C1884.79 1215.63 1885.35 1219.84 1885.31 1227.94C1884.24 1233.94 1880.17 1236.73 1875.69 1240.55C1872.98 1248.69 1873.39 1257.21 1873.28 1265.74C1872.84 1278.01 1869.55 1287.29 1861.4 1296.59C1859.65 1298.04 1859.65 1298.04 1857.86 1299.52C1856.7 1300.51 1855.54 1301.51 1854.34 1302.53C1846.98 1307.6 1840.59 1309.16 1831.71 1309.06C1829.88 1309.05 1828.04 1309.04 1826.16 1309.03C1824.26 1309 1822.37 1308.97 1820.42 1308.94C1818.49 1308.92 1816.57 1308.9 1814.58 1308.89C1809.84 1308.84 1805.1 1308.79 1800.35 1308.71C1804.98 1324.21 1810.85 1337.51 1824.94 1346.55C1838.11 1353.46 1852.49 1353.87 1867.06 1354.11C1868.38 1354.14 1869.71 1354.16 1871.08 1354.19C1889.89 1354.31 1889.89 1354.31 1906.11 1345.7C1911.76 1339.43 1916.1 1332.52 1920.15 1325.14C1923.1 1319.88 1926.75 1315.32 1930.51 1310.62C1933.17 1307 1935.82 1303.37 1938.47 1299.74C1940.29 1297.29 1942.12 1294.83 1943.94 1292.38C1956.7 1275.1 1968.33 1257.42 1979.27 1238.94C1981.38 1235.4 1983.53 1231.87 1985.7 1228.36C2043.38 1134.59 2074.66 1026.38 2048.89 917.351C2045.95 905.343 2042.58 893.59 2038.37 881.961C2037.12 878.226 2037.12 878.226 2037.12 874.639C2034.79 874.75 2032.46 874.861 2030.06 874.975C2017.03 874.954 2005.25 871.468 1995.87 862.083C1995.87 860.899 1995.87 859.715 1995.87 858.495C1994.68 858.495 1993.5 858.495 1992.28 858.495C1983.71 845.378 1983.18 832.638 1985.1 817.241C1989.26 805.307 1999.56 795.647 2010.74 790.083C2022.34 786.4 2037.42 786.247 2048.67 791.232Z" fill="#ADE705"/>
<path d="M1649.23 956C1679.2 892 1743.4 820.167 1772.23 792L1827.73 845C1826.73 845.5 1816.26 853.257 1785.23 878.5C1755.73 902.5 1713.44 961.208 1698.23 988.5C1678.73 1023.5 1653.13 1103.1 1650.73 1145.5C1647.73 1198.5 1647.89 1183.5 1649.39 1215C1650.6 1240.4 1655.89 1261.81 1659.63 1276.93L1659.89 1278C1662.73 1289.5 1680.9 1333.67 1689.73 1353.5C1693.56 1359.83 1705.89 1379.3 1729.89 1408.5C1753.89 1437.7 1798.73 1462.17 1818.23 1470.5L1808.73 1473L1780.23 1477.5L1749.23 1481C1746.56 1478.5 1733.6 1475.54 1709.23 1448.5C1677.23 1413 1665.35 1403.5 1635.39 1344L1635.05 1343.32C1623.14 1319.68 1601.69 1277.09 1597.39 1183.5C1594.09 1111.55 1612.56 1044.17 1621.39 1019.5C1623.56 1013.83 1625.63 1006.4 1649.23 956Z" fill="#ADE705"/>
<path d="M1737.57 1073.74C1738.17 1074.92 1738.76 1076.11 1739.37 1077.33C1738.04 1078.07 1736.7 1078.8 1735.33 1079.57C1730.58 1082.59 1727.05 1085.77 1723.22 1089.88C1723.82 1084.33 1724.23 1081.65 1728.38 1077.77C1732.19 1075.53 1732.19 1075.53 1737.57 1073.74Z" fill="#A0E705"/>
<path d="M1889 675C1933.5 610 1945 525.5 1943 491C1945 491 1983.5 508.5 1999.5 519C1999.5 542.5 1997.9 560.3 1995.5 581.5C1992.5 608 1971 681 1939.5 732.5C1914.3 773.7 1854.67 823.833 1826.5 845L1771 792C1790.83 779.333 1844.53 739.962 1889 675Z" fill="#00DA1B"/>
<path d="M2306.89 1031L2301.89 1068.5L2296.89 1094.5L2283.39 1150L2265.89 1199.5L2246.89 1243.5L2217.89 1298L2182.89 1349L2147.89 1392L2111.89 1427.5L2074.39 1459.5L2033.39 1488L1952.39 1545L1947.81 1540.42C1950.43 1534.31 1951.89 1527.57 1951.89 1520.5C1951.89 1492.61 1929.28 1470 1901.39 1470C1897.47 1470 1893.66 1470.45 1890 1471.29C1899.13 1460.48 1918.88 1438.36 1935.89 1428C1958.89 1414 2019.39 1377 2019.39 1377L2070.89 1331.5L2095.39 1306.5L2116.89 1279.5L2134.39 1257L2154.39 1228.5L2184.89 1170.5L2197.39 1141.5L2209.89 1106.5L2221.39 1068.5L2228.89 1031H2306.89Z" fill="#008700"/>
<rect x="2080" y="1432" width="1" height="10" fill="#D9D9D9"/>
<circle cx="1841" cy="1597" r="52" fill="#008700"/>
</svg>
